<svg xmlns="http://www.w3.org/2000/svg" xmlns:xlink="http://www.w3.org/1999/xlink" width="1956" zoomAndPan="magnify" viewBox="0 0 1467 558.75" height="745" preserveAspectRatio="xMidYMid meet" version="1.0"><defs><g/><clipPath id="96f57c6a54"><rect x="0" width="1070" y="0" height="345"/></clipPath><clipPath id="e7d5812bb4"><rect x="0" width="1322" y="0" height="143"/></clipPath><clipPath id="73b4bd4b37"><path d="M 0.328125 0 L 562 0 L 562 558.5 L 0.328125 558.5 Z M 0.328125 0 " clip-rule="nonzero"/></clipPath><clipPath id="502e132c66"><path d="M 169.292969 72.113281 L 281.59375 72.113281 L 281.59375 169.570312 L 169.292969 169.570312 Z M 169.292969 72.113281 " clip-rule="nonzero"/></clipPath><clipPath id="f91f29095b"><path d="M 225.257812 72.113281 L 281.226562 169.570312 L 169.292969 169.570312 Z M 225.257812 72.113281 " clip-rule="nonzero"/></clipPath><clipPath id="f338e9b539"><path d="M 0.292969 0.113281 L 112.242188 0.113281 L 112.242188 97.570312 L 0.292969 97.570312 Z M 0.292969 0.113281 " clip-rule="nonzero"/></clipPath><clipPath id="da9664c388"><path d="M 56.257812 0.113281 L 112.226562 97.570312 L 0.292969 97.570312 Z M 56.257812 0.113281 " clip-rule="nonzero"/></clipPath><clipPath id="b499909e6f"><rect x="0" width="113" y="0" height="98"/></clipPath></defs><path stroke-linecap="butt" transform="matrix(0, 0.749665, -0.749665, 0, 319.320907, 102.978167)" fill="none" stroke-linejoin="miter" d="M -0.00214021 5.998267 L 342.817859 5.998267 " stroke="#33cc33" stroke-width="12" stroke-opacity="1" stroke-miterlimit="4"/><g transform="matrix(1, 0, 0, 1, 272, 94)"><g clip-path="url(#96f57c6a54)"><g fill="#33cc33" fill-opacity="1"><g transform="translate(1.1029, 248.105006)"><g><path d="M 68.203125 -226.875 L 68.203125 0 L 16.5 0 L 16.5 -226.875 Z M 68.203125 -226.875 "/></g></g></g><g fill="#33cc33" fill-opacity="1"><g transform="translate(80.30411, 248.105006)"><g><path d="M 100.09375 -231 C 112.382812 -231 124.394531 -229.210938 136.125 -225.640625 C 147.851562 -222.066406 156.5625 -218.535156 162.25 -215.046875 L 170.5 -209.546875 L 149.59375 -168.296875 C 147.945312 -169.398438 145.65625 -170.820312 142.71875 -172.5625 C 139.789062 -174.300781 134.289062 -176.632812 126.21875 -179.5625 C 118.15625 -182.5 110.640625 -183.96875 103.671875 -183.96875 C 95.054688 -183.96875 88.410156 -182.132812 83.734375 -178.46875 C 79.054688 -174.800781 76.71875 -169.851562 76.71875 -163.625 C 76.71875 -160.507812 77.816406 -157.617188 80.015625 -154.953125 C 82.222656 -152.296875 85.984375 -149.457031 91.296875 -146.4375 C 96.617188 -143.414062 101.296875 -140.988281 105.328125 -139.15625 C 109.359375 -137.320312 115.59375 -134.570312 124.03125 -130.90625 C 138.695312 -124.664062 151.207031 -116.179688 161.5625 -105.453125 C 171.914062 -94.734375 177.09375 -82.59375 177.09375 -69.03125 C 177.09375 -56.007812 174.753906 -44.640625 170.078125 -34.921875 C 165.410156 -25.203125 158.992188 -17.59375 150.828125 -12.09375 C 142.671875 -6.59375 133.644531 -2.515625 123.75 0.140625 C 113.851562 2.796875 103.128906 4.125 91.578125 4.125 C 81.671875 4.125 71.953125 3.113281 62.421875 1.09375 C 52.890625 -0.914062 44.914062 -3.429688 38.5 -6.453125 C 32.082031 -9.484375 26.304688 -12.460938 21.171875 -15.390625 C 16.035156 -18.328125 12.28125 -20.804688 9.90625 -22.828125 L 6.328125 -25.84375 L 32.171875 -69.296875 C 34.367188 -67.460938 37.394531 -65.125 41.25 -62.28125 C 45.101562 -59.445312 51.929688 -55.644531 61.734375 -50.875 C 71.546875 -46.101562 80.207031 -43.71875 87.71875 -43.71875 C 109.539062 -43.71875 120.453125 -51.144531 120.453125 -66 C 120.453125 -69.113281 119.671875 -72 118.109375 -74.65625 C 116.554688 -77.320312 113.804688 -79.984375 109.859375 -82.640625 C 105.921875 -85.296875 102.4375 -87.398438 99.40625 -88.953125 C 96.382812 -90.515625 91.4375 -92.898438 84.5625 -96.109375 C 77.6875 -99.316406 72.597656 -101.75 69.296875 -103.40625 C 55.546875 -110.1875 44.910156 -118.660156 37.390625 -128.828125 C 29.878906 -139.003906 26.125 -149.960938 26.125 -161.703125 C 26.125 -182.046875 33.640625 -198.679688 48.671875 -211.609375 C 63.703125 -224.535156 80.84375 -231 100.09375 -231 Z M 100.09375 -231 "/></g></g></g><g fill="#33cc33" fill-opacity="1"><g transform="translate(265.106915, 248.105006)"><g><path d="M 68.203125 -91.03125 L 68.203125 0 L 16.5 0 L 16.5 -226.875 L 68.203125 -226.875 L 68.203125 -136.40625 L 141.34375 -136.40625 L 141.34375 -226.875 L 193.046875 -226.875 L 193.046875 0 L 141.34375 0 L 141.34375 -91.03125 Z M 68.203125 -91.03125 "/></g></g></g><g fill="#33cc33" fill-opacity="1"><g transform="translate(474.660046, 248.105006)"><g><path d="M 131.71875 -226.875 L 223.296875 0 L 167.75 0 L 150.96875 -45.375 L 64.625 -45.375 L 47.84375 0 L -7.703125 0 L 83.875 -226.875 Z M 133.375 -90.75 L 108.078125 -156.75 L 107.53125 -156.75 L 82.21875 -90.75 Z M 133.375 -90.75 "/></g></g></g><g fill="#33cc33" fill-opacity="1"><g transform="translate(690.263297, 248.105006)"><g><path d="M 68.203125 -140.796875 L 68.203125 0 L 16.5 0 L 16.5 -226.875 L 68.203125 -226.875 L 158.40625 -86.078125 L 158.953125 -86.078125 L 158.953125 -226.875 L 210.65625 -226.875 L 210.65625 0 L 158.953125 0 L 68.75 -140.796875 Z M 68.203125 -140.796875 "/></g></g></g><g fill="#33cc33" fill-opacity="1"><g transform="translate(904.216593, 248.105006)"><g><path d="M 2.203125 -181.5 L 2.203125 -226.875 L 161.703125 -226.875 L 161.703125 -181.5 L 107.796875 -181.5 L 107.796875 0 L 56.09375 0 L 56.09375 -181.5 Z M 2.203125 -181.5 "/></g></g></g></g></g><g transform="matrix(1, 0, 0, 1, 28, 374)"><g clip-path="url(#e7d5812bb4)"><g fill="#ffffff" fill-opacity="1"><g transform="translate(0.602168, 106.487016)"><g><path d="M 20.078125 0 L 20.078125 -88.921875 L 1.84375 -88.921875 L 1.84375 -98.96875 L 49.34375 -98.96875 L 49.34375 -88.921875 L 31.109375 -88.921875 L 31.109375 0 Z M 20.078125 0 "/></g></g></g><g fill="#ffffff" fill-opacity="1"><g transform="translate(51.917583, 106.487016)"><g><path d="M 16.6875 -44.53125 L 16.6875 0 L 5.65625 0 L 5.65625 -98.96875 L 16.6875 -98.96875 L 16.6875 -54.421875 L 41 -54.421875 L 41 -98.96875 L 52.03125 -98.96875 L 52.03125 0 L 41 0 L 41 -44.53125 Z M 16.6875 -44.53125 "/></g></g></g><g fill="#ffffff" fill-opacity="1"><g transform="translate(109.594411, 106.487016)"><g><path d="M 40.859375 -55.140625 L 40.859375 -45.234375 L 16.6875 -45.234375 L 16.6875 -10.03125 L 46.375 -10.03125 L 46.375 0 L 5.65625 0 L 5.65625 -98.96875 L 46.375 -98.96875 L 46.375 -88.921875 L 16.6875 -88.921875 L 16.6875 -55.140625 Z M 40.859375 -55.140625 "/></g></g></g><g fill="#ffffff" fill-opacity="1"><g transform="translate(160.485721, 106.487016)"><g/></g></g><g fill="#ffffff" fill-opacity="1"><g transform="translate(182.397261, 106.487016)"><g><path d="M 26.4375 -99.953125 C 33.976562 -99.953125 39.535156 -97.710938 43.109375 -93.234375 C 46.691406 -88.753906 48.484375 -82.75 48.484375 -75.21875 L 48.484375 -72.53125 L 38.03125 -72.53125 L 38.03125 -75.78125 C 38.03125 -80.300781 37.132812 -83.785156 35.34375 -86.234375 C 33.550781 -88.691406 30.675781 -89.921875 26.71875 -89.921875 C 22.757812 -89.921875 19.882812 -88.691406 18.09375 -86.234375 C 16.300781 -83.785156 15.40625 -80.347656 15.40625 -75.921875 C 15.40625 -72.242188 16.226562 -69.035156 17.875 -66.296875 C 19.53125 -63.566406 21.582031 -61.046875 24.03125 -58.734375 C 26.476562 -56.429688 29.140625 -54.171875 32.015625 -51.953125 C 34.890625 -49.742188 37.550781 -47.316406 40 -44.671875 C 42.457031 -42.035156 44.507812 -39.039062 46.15625 -35.6875 C 47.8125 -32.34375 48.640625 -28.363281 48.640625 -23.75 C 48.640625 -16.207031 46.820312 -10.195312 43.1875 -5.71875 C 39.5625 -1.25 33.929688 0.984375 26.296875 0.984375 C 18.660156 0.984375 13.050781 -1.25 9.46875 -5.71875 C 5.882812 -10.195312 4.09375 -16.207031 4.09375 -23.75 L 4.09375 -29.40625 L 14.421875 -29.40625 L 14.421875 -23.1875 C 14.421875 -18.664062 15.363281 -15.175781 17.25 -12.71875 C 19.132812 -10.269531 22.054688 -9.046875 26.015625 -9.046875 C 29.972656 -9.046875 32.894531 -10.269531 34.78125 -12.71875 C 36.664062 -15.175781 37.609375 -18.664062 37.609375 -23.1875 C 37.609375 -26.863281 36.78125 -30.039062 35.125 -32.71875 C 33.476562 -35.40625 31.429688 -37.90625 28.984375 -40.21875 C 26.535156 -42.53125 23.894531 -44.789062 21.0625 -47 C 18.238281 -49.21875 15.597656 -51.644531 13.140625 -54.28125 C 10.691406 -56.925781 8.644531 -59.921875 7 -63.265625 C 5.351562 -66.609375 4.53125 -70.59375 4.53125 -75.21875 C 4.53125 -82.84375 6.316406 -88.867188 9.890625 -93.296875 C 13.472656 -97.734375 18.988281 -99.953125 26.4375 -99.953125 Z M 26.4375 -99.953125 "/></g></g></g><g fill="#ffffff" fill-opacity="1"><g transform="translate(234.98495, 106.487016)"><g><path d="M 27 -99.953125 C 34.632812 -99.953125 40.265625 -97.6875 43.890625 -93.15625 C 47.523438 -88.632812 49.34375 -82.601562 49.34375 -75.0625 L 49.34375 -66.15625 L 38.875 -66.15625 L 38.875 -75.640625 C 38.875 -80.160156 37.953125 -83.671875 36.109375 -86.171875 C 34.273438 -88.671875 31.332031 -89.921875 27.28125 -89.921875 C 23.320312 -89.921875 20.398438 -88.671875 18.515625 -86.171875 C 16.628906 -83.671875 15.6875 -80.160156 15.6875 -75.640625 L 15.6875 -23.328125 C 15.6875 -18.804688 16.628906 -15.296875 18.515625 -12.796875 C 20.398438 -10.296875 23.320312 -9.046875 27.28125 -9.046875 C 31.332031 -9.046875 34.273438 -10.296875 36.109375 -12.796875 C 37.953125 -15.296875 38.875 -18.804688 38.875 -23.328125 L 38.875 -36.1875 L 49.34375 -36.1875 L 49.34375 -23.890625 C 49.34375 -16.347656 47.523438 -10.316406 43.890625 -5.796875 C 40.265625 -1.273438 34.632812 0.984375 27 0.984375 C 19.457031 0.984375 13.875 -1.273438 10.25 -5.796875 C 6.625 -10.316406 4.8125 -16.347656 4.8125 -23.890625 L 4.8125 -75.0625 C 4.8125 -78.832031 5.257812 -82.25 6.15625 -85.3125 C 7.050781 -88.382812 8.414062 -91.003906 10.25 -93.171875 C 12.082031 -95.335938 14.390625 -97.007812 17.171875 -98.1875 C 19.953125 -99.363281 23.226562 -99.953125 27 -99.953125 Z M 27 -99.953125 "/></g></g></g><g fill="#ffffff" fill-opacity="1"><g transform="translate(288.703546, 106.487016)"><g><path d="M 16.6875 -44.53125 L 16.6875 0 L 5.65625 0 L 5.65625 -98.96875 L 16.6875 -98.96875 L 16.6875 -54.421875 L 41 -54.421875 L 41 -98.96875 L 52.03125 -98.96875 L 52.03125 0 L 41 0 L 41 -44.53125 Z M 16.6875 -44.53125 "/></g></g></g><g fill="#ffffff" fill-opacity="1"><g transform="translate(346.380374, 106.487016)"><g><path d="M 4.8125 -75.0625 C 4.8125 -82.695312 6.671875 -88.753906 10.390625 -93.234375 C 14.109375 -97.710938 19.785156 -99.953125 27.421875 -99.953125 C 35.054688 -99.953125 40.757812 -97.710938 44.53125 -93.234375 C 48.300781 -88.753906 50.1875 -82.695312 50.1875 -75.0625 L 50.1875 -23.890625 C 50.1875 -16.347656 48.300781 -10.316406 44.53125 -5.796875 C 40.757812 -1.273438 35.054688 0.984375 27.421875 0.984375 C 19.785156 0.984375 14.109375 -1.273438 10.390625 -5.796875 C 6.671875 -10.316406 4.8125 -16.347656 4.8125 -23.890625 Z M 15.6875 -23.328125 C 15.6875 -18.804688 16.648438 -15.296875 18.578125 -12.796875 C 20.515625 -10.296875 23.460938 -9.046875 27.421875 -9.046875 C 31.472656 -9.046875 34.441406 -10.296875 36.328125 -12.796875 C 38.210938 -15.296875 39.15625 -18.804688 39.15625 -23.328125 L 39.15625 -75.640625 C 39.15625 -80.160156 38.210938 -83.671875 36.328125 -86.171875 C 34.441406 -88.671875 31.472656 -89.921875 27.421875 -89.921875 C 23.460938 -89.921875 20.515625 -88.671875 18.578125 -86.171875 C 16.648438 -83.671875 15.6875 -80.160156 15.6875 -75.640625 Z M 15.6875 -23.328125 "/></g></g></g><g fill="#ffffff" fill-opacity="1"><g transform="translate(401.371298, 106.487016)"><g><path d="M 4.8125 -75.0625 C 4.8125 -82.695312 6.671875 -88.753906 10.390625 -93.234375 C 14.109375 -97.710938 19.785156 -99.953125 27.421875 -99.953125 C 35.054688 -99.953125 40.757812 -97.710938 44.53125 -93.234375 C 48.300781 -88.753906 50.1875 -82.695312 50.1875 -75.0625 L 50.1875 -23.890625 C 50.1875 -16.347656 48.300781 -10.316406 44.53125 -5.796875 C 40.757812 -1.273438 35.054688 0.984375 27.421875 0.984375 C 19.785156 0.984375 14.109375 -1.273438 10.390625 -5.796875 C 6.671875 -10.316406 4.8125 -16.347656 4.8125 -23.890625 Z M 15.6875 -23.328125 C 15.6875 -18.804688 16.648438 -15.296875 18.578125 -12.796875 C 20.515625 -10.296875 23.460938 -9.046875 27.421875 -9.046875 C 31.472656 -9.046875 34.441406 -10.296875 36.328125 -12.796875 C 38.210938 -15.296875 39.15625 -18.804688 39.15625 -23.328125 L 39.15625 -75.640625 C 39.15625 -80.160156 38.210938 -83.671875 36.328125 -86.171875 C 34.441406 -88.671875 31.472656 -89.921875 27.421875 -89.921875 C 23.460938 -89.921875 20.515625 -88.671875 18.578125 -86.171875 C 16.648438 -83.671875 15.6875 -80.160156 15.6875 -75.640625 Z M 15.6875 -23.328125 "/></g></g></g><g fill="#ffffff" fill-opacity="1"><g transform="translate(456.362169, 106.487016)"><g><path d="M 5.65625 0 L 5.65625 -98.96875 L 16.6875 -98.96875 L 16.6875 -10.03125 L 44.953125 -10.03125 L 44.953125 0 Z M 5.65625 0 "/></g></g></g><g fill="#ffffff" fill-opacity="1"><g transform="translate(504.002101, 106.487016)"><g/></g></g><g fill="#ffffff" fill-opacity="1"><g transform="translate(525.913614, 106.487016)"><g><path d="M 4.8125 -75.0625 C 4.8125 -82.695312 6.671875 -88.753906 10.390625 -93.234375 C 14.109375 -97.710938 19.785156 -99.953125 27.421875 -99.953125 C 35.054688 -99.953125 40.757812 -97.710938 44.53125 -93.234375 C 48.300781 -88.753906 50.1875 -82.695312 50.1875 -75.0625 L 50.1875 -23.890625 C 50.1875 -16.347656 48.300781 -10.316406 44.53125 -5.796875 C 40.757812 -1.273438 35.054688 0.984375 27.421875 0.984375 C 19.785156 0.984375 14.109375 -1.273438 10.390625 -5.796875 C 6.671875 -10.316406 4.8125 -16.347656 4.8125 -23.890625 Z M 15.6875 -23.328125 C 15.6875 -18.804688 16.648438 -15.296875 18.578125 -12.796875 C 20.515625 -10.296875 23.460938 -9.046875 27.421875 -9.046875 C 31.472656 -9.046875 34.441406 -10.296875 36.328125 -12.796875 C 38.210938 -15.296875 39.15625 -18.804688 39.15625 -23.328125 L 39.15625 -75.640625 C 39.15625 -80.160156 38.210938 -83.671875 36.328125 -86.171875 C 34.441406 -88.671875 31.472656 -89.921875 27.421875 -89.921875 C 23.460938 -89.921875 20.515625 -88.671875 18.578125 -86.171875 C 16.648438 -83.671875 15.6875 -80.160156 15.6875 -75.640625 Z M 15.6875 -23.328125 "/></g></g></g><g fill="#ffffff" fill-opacity="1"><g transform="translate(580.904538, 106.487016)"><g><path d="M 39.4375 -52.875 L 39.4375 -42.84375 L 16.6875 -42.84375 L 16.6875 0 L 5.65625 0 L 5.65625 -98.96875 L 44.953125 -98.96875 L 44.953125 -88.921875 L 16.6875 -88.921875 L 16.6875 -52.875 Z M 39.4375 -52.875 "/></g></g></g><g fill="#ffffff" fill-opacity="1"><g transform="translate(628.968588, 106.487016)"><g/></g></g><g fill="#ffffff" fill-opacity="1"><g transform="translate(650.880102, 106.487016)"><g><path d="M 26.4375 -99.953125 C 33.976562 -99.953125 39.535156 -97.710938 43.109375 -93.234375 C 46.691406 -88.753906 48.484375 -82.75 48.484375 -75.21875 L 48.484375 -72.53125 L 38.03125 -72.53125 L 38.03125 -75.78125 C 38.03125 -80.300781 37.132812 -83.785156 35.34375 -86.234375 C 33.550781 -88.691406 30.675781 -89.921875 26.71875 -89.921875 C 22.757812 -89.921875 19.882812 -88.691406 18.09375 -86.234375 C 16.300781 -83.785156 15.40625 -80.347656 15.40625 -75.921875 C 15.40625 -72.242188 16.226562 -69.035156 17.875 -66.296875 C 19.53125 -63.566406 21.582031 -61.046875 24.03125 -58.734375 C 26.476562 -56.429688 29.140625 -54.171875 32.015625 -51.953125 C 34.890625 -49.742188 37.550781 -47.316406 40 -44.671875 C 42.457031 -42.035156 44.507812 -39.039062 46.15625 -35.6875 C 47.8125 -32.34375 48.640625 -28.363281 48.640625 -23.75 C 48.640625 -16.207031 46.820312 -10.195312 43.1875 -5.71875 C 39.5625 -1.25 33.929688 0.984375 26.296875 0.984375 C 18.660156 0.984375 13.050781 -1.25 9.46875 -5.71875 C 5.882812 -10.195312 4.09375 -16.207031 4.09375 -23.75 L 4.09375 -29.40625 L 14.421875 -29.40625 L 14.421875 -23.1875 C 14.421875 -18.664062 15.363281 -15.175781 17.25 -12.71875 C 19.132812 -10.269531 22.054688 -9.046875 26.015625 -9.046875 C 29.972656 -9.046875 32.894531 -10.269531 34.78125 -12.71875 C 36.664062 -15.175781 37.609375 -18.664062 37.609375 -23.1875 C 37.609375 -26.863281 36.78125 -30.039062 35.125 -32.71875 C 33.476562 -35.40625 31.429688 -37.90625 28.984375 -40.21875 C 26.535156 -42.53125 23.894531 -44.789062 21.0625 -47 C 18.238281 -49.21875 15.597656 -51.644531 13.140625 -54.28125 C 10.691406 -56.925781 8.644531 -59.921875 7 -63.265625 C 5.351562 -66.609375 4.53125 -70.59375 4.53125 -75.21875 C 4.53125 -82.84375 6.316406 -88.867188 9.890625 -93.296875 C 13.472656 -97.734375 18.988281 -99.953125 26.4375 -99.953125 Z M 26.4375 -99.953125 "/></g></g></g><g fill="#ffffff" fill-opacity="1"><g transform="translate(703.467777, 106.487016)"><g><path d="M 31.953125 0 L 16.828125 0 L 3.25 -98.96875 L 14 -98.96875 L 25.59375 -14.703125 L 36.609375 -98.828125 L 47.5 -98.828125 L 58.390625 -14.5625 L 69.5625 -98.96875 L 79.171875 -98.96875 L 65.734375 0 L 51.171875 0 L 41.703125 -67.15625 Z M 31.953125 0 "/></g></g></g><g fill="#ffffff" fill-opacity="1"><g transform="translate(785.883432, 106.487016)"><g><path d="M 16.6875 -98.96875 L 16.6875 0 L 5.65625 0 L 5.65625 -98.96875 Z M 16.6875 -98.96875 "/></g></g></g><g fill="#ffffff" fill-opacity="1"><g transform="translate(808.219064, 106.487016)"><g><path d="M 15.40625 0 L 5.515625 0 L 5.515625 -98.96875 L 19.515625 -98.96875 L 42.40625 -27.421875 L 42.40625 -98.96875 L 52.171875 -98.96875 L 52.171875 0 L 40.71875 0 L 15.40625 -80.015625 Z M 15.40625 0 "/></g></g></g><g fill="#ffffff" fill-opacity="1"><g transform="translate(866.037247, 106.487016)"><g><path d="M 27 -99.953125 C 34.632812 -99.953125 40.265625 -97.6875 43.890625 -93.15625 C 47.523438 -88.632812 49.34375 -82.601562 49.34375 -75.0625 L 49.34375 -66.59375 L 38.875 -66.59375 L 38.875 -75.640625 C 38.875 -80.160156 37.953125 -83.671875 36.109375 -86.171875 C 34.273438 -88.671875 31.332031 -89.921875 27.28125 -89.921875 C 23.320312 -89.921875 20.398438 -88.671875 18.515625 -86.171875 C 16.628906 -83.671875 15.6875 -80.160156 15.6875 -75.640625 L 15.6875 -23.328125 C 15.6875 -18.804688 16.628906 -15.296875 18.515625 -12.796875 C 20.398438 -10.296875 23.320312 -9.046875 27.28125 -9.046875 C 31.332031 -9.046875 34.273438 -10.296875 36.109375 -12.796875 C 37.953125 -15.296875 38.875 -18.804688 38.875 -23.328125 L 38.875 -43.125 L 28.703125 -43.125 L 28.703125 -53.015625 L 49.34375 -53.015625 L 49.34375 -23.890625 C 49.34375 -16.347656 47.523438 -10.316406 43.890625 -5.796875 C 40.265625 -1.273438 34.632812 0.984375 27 0.984375 C 19.457031 0.984375 13.875 -1.273438 10.25 -5.796875 C 6.625 -10.316406 4.8125 -16.347656 4.8125 -23.890625 L 4.8125 -75.0625 C 4.8125 -78.832031 5.257812 -82.25 6.15625 -85.3125 C 7.050781 -88.382812 8.414062 -91.003906 10.25 -93.171875 C 12.082031 -95.335938 14.390625 -97.007812 17.171875 -98.1875 C 19.953125 -99.363281 23.226562 -99.953125 27 -99.953125 Z M 27 -99.953125 "/></g></g></g><g fill="#ffffff" fill-opacity="1"><g transform="translate(920.179988, 106.487016)"><g/></g></g><g fill="#ffffff" fill-opacity="1"><g transform="translate(942.091556, 106.487016)"><g><path d="M 20.078125 0 L 20.078125 -88.921875 L 1.84375 -88.921875 L 1.84375 -98.96875 L 49.34375 -98.96875 L 49.34375 -88.921875 L 31.109375 -88.921875 L 31.109375 0 Z M 20.078125 0 "/></g></g></g><g fill="#ffffff" fill-opacity="1"><g transform="translate(993.406876, 106.487016)"><g><path d="M 27.703125 -98.96875 C 35.523438 -98.96875 41.15625 -97.035156 44.59375 -93.171875 C 48.039062 -89.304688 49.765625 -83.695312 49.765625 -76.34375 L 49.765625 -68.28125 C 49.765625 -62.8125 48.773438 -58.378906 46.796875 -54.984375 C 44.816406 -51.597656 41.707031 -49.242188 37.46875 -47.921875 C 41.988281 -46.609375 45.191406 -44.179688 47.078125 -40.640625 C 48.960938 -37.109375 49.90625 -32.65625 49.90625 -27.28125 L 49.90625 -11.875 C 49.90625 -9.707031 50 -7.609375 50.1875 -5.578125 C 50.375 -3.554688 50.941406 -1.695312 51.890625 0 L 40.71875 0 C 40.050781 -1.414062 39.578125 -2.945312 39.296875 -4.59375 C 39.015625 -6.238281 38.875 -8.710938 38.875 -12.015625 L 38.875 -27.5625 C 38.875 -33.125 37.625 -36.960938 35.125 -39.078125 C 32.632812 -41.203125 29.078125 -42.265625 24.453125 -42.265625 L 16.6875 -42.265625 L 16.6875 0 L 5.65625 0 L 5.65625 -98.96875 Z M 24.875 -52.3125 C 29.3125 -52.3125 32.753906 -53.226562 35.203125 -55.0625 C 37.648438 -56.90625 38.875 -60.507812 38.875 -65.875 L 38.875 -75.359375 C 38.875 -79.878906 38 -83.269531 36.25 -85.53125 C 34.507812 -87.789062 31.566406 -88.921875 27.421875 -88.921875 L 16.6875 -88.921875 L 16.6875 -52.3125 Z M 24.875 -52.3125 "/></g></g></g><g fill="#ffffff" fill-opacity="1"><g transform="translate(1049.104682, 106.487016)"><g><path d="M 16.828125 -19.9375 L 13 0 L 2.828125 0 L 21.765625 -98.96875 L 37.75 -98.96875 L 56.6875 0 L 45.671875 0 L 41.84375 -19.9375 Z M 18.234375 -29.40625 L 40.296875 -29.40625 L 29.125 -86.515625 Z M 18.234375 -29.40625 "/></g></g></g><g fill="#ffffff" fill-opacity="1"><g transform="translate(1108.760533, 106.487016)"><g><path d="M 28.84375 -98.96875 C 36.570312 -98.96875 42.25 -96.773438 45.875 -92.390625 C 49.5 -88.003906 51.3125 -81.992188 51.3125 -74.359375 L 51.3125 -24.453125 C 51.3125 -16.816406 49.5 -10.832031 45.875 -6.5 C 42.25 -2.164062 36.570312 0 28.84375 0 L 5.65625 0 L 5.65625 -98.96875 Z M 28.703125 -10.03125 C 32.660156 -10.03125 35.601562 -11.234375 37.53125 -13.640625 C 39.46875 -16.046875 40.4375 -19.507812 40.4375 -24.03125 L 40.4375 -74.921875 C 40.4375 -79.453125 39.46875 -82.914062 37.53125 -85.3125 C 35.601562 -87.71875 32.613281 -88.921875 28.5625 -88.921875 L 16.6875 -88.921875 L 16.6875 -10.03125 Z M 28.703125 -10.03125 "/></g></g></g><g fill="#ffffff" fill-opacity="1"><g transform="translate(1164.741049, 106.487016)"><g><path d="M 16.6875 -98.96875 L 16.6875 0 L 5.65625 0 L 5.65625 -98.96875 Z M 16.6875 -98.96875 "/></g></g></g><g fill="#ffffff" fill-opacity="1"><g transform="translate(1187.076627, 106.487016)"><g><path d="M 15.40625 0 L 5.515625 0 L 5.515625 -98.96875 L 19.515625 -98.96875 L 42.40625 -27.421875 L 42.40625 -98.96875 L 52.171875 -98.96875 L 52.171875 0 L 40.71875 0 L 15.40625 -80.015625 Z M 15.40625 0 "/></g></g></g><g fill="#ffffff" fill-opacity="1"><g transform="translate(1244.894811, 106.487016)"><g><path d="M 27 -99.953125 C 34.632812 -99.953125 40.265625 -97.6875 43.890625 -93.15625 C 47.523438 -88.632812 49.34375 -82.601562 49.34375 -75.0625 L 49.34375 -66.59375 L 38.875 -66.59375 L 38.875 -75.640625 C 38.875 -80.160156 37.953125 -83.671875 36.109375 -86.171875 C 34.273438 -88.671875 31.332031 -89.921875 27.28125 -89.921875 C 23.320312 -89.921875 20.398438 -88.671875 18.515625 -86.171875 C 16.628906 -83.671875 15.6875 -80.160156 15.6875 -75.640625 L 15.6875 -23.328125 C 15.6875 -18.804688 16.628906 -15.296875 18.515625 -12.796875 C 20.398438 -10.296875 23.320312 -9.046875 27.28125 -9.046875 C 31.332031 -9.046875 34.273438 -10.296875 36.109375 -12.796875 C 37.953125 -15.296875 38.875 -18.804688 38.875 -23.328125 L 38.875 -43.125 L 28.703125 -43.125 L 28.703125 -53.015625 L 49.34375 -53.015625 L 49.34375 -23.890625 C 49.34375 -16.347656 47.523438 -10.316406 43.890625 -5.796875 C 40.265625 -1.273438 34.632812 0.984375 27 0.984375 C 19.457031 0.984375 13.875 -1.273438 10.25 -5.796875 C 6.625 -10.316406 4.8125 -16.347656 4.8125 -23.890625 L 4.8125 -75.0625 C 4.8125 -78.832031 5.257812 -82.25 6.15625 -85.3125 C 7.050781 -88.382812 8.414062 -91.003906 10.25 -93.171875 C 12.082031 -95.335938 14.390625 -97.007812 17.171875 -98.1875 C 19.953125 -99.363281 23.226562 -99.953125 27 -99.953125 Z M 27 -99.953125 "/></g></g></g><g fill="#ffffff" fill-opacity="1"><g transform="translate(1299.048552, 106.487016)"><g/></g></g></g></g><path stroke-linecap="butt" transform="matrix(0, 0.749665, -0.749665, 0, 89.422179, 98.674126)" fill="none" stroke-linejoin="miter" d="M 0.00220844 40.497686 L 350.190086 40.497686 " stroke="#33cc33" stroke-width="81" stroke-opacity="1" stroke-miterlimit="4"/><g clip-path="url(#73b4bd4b37)"><path stroke-linecap="butt" transform="matrix(0.419096, 0.621575, -0.621575, 0.419096, 89.531211, 99.088111)" fill="none" stroke-linejoin="miter" d="M 0.00256178 40.498588 L 366.731651 40.497604 " stroke="#33cc33" stroke-width="81" stroke-opacity="1" stroke-miterlimit="4"/></g><path stroke-linecap="butt" transform="matrix(0, 0.749665, -0.749665, 0, 253.662973, 131.225916)" fill="none" stroke-linejoin="miter" d="M 0.000862696 40.501038 L 306.768278 40.501038 " stroke="#33cc33" stroke-width="81" stroke-opacity="1" stroke-miterlimit="4"/><g clip-path="url(#502e132c66)"><g clip-path="url(#f91f29095b)"><g transform="matrix(1, 0, 0, 1, 169, 72)"><g clip-path="url(#b499909e6f)"><g clip-path="url(#f338e9b539)"><g clip-path="url(#da9664c388)"><path fill="#33cc33" d="M 0.292969 0.113281 L 112.214844 0.113281 L 112.214844 97.570312 L 0.292969 97.570312 Z M 0.292969 0.113281 " fill-opacity="1" fill-rule="nonzero"/></g></g></g></g></g></g></svg>