<svg xmlns="http://www.w3.org/2000/svg" xmlns:xlink="http://www.w3.org/1999/xlink" width="50" zoomAndPan="magnify" viewBox="0 0 37.5 37.499999" height="50" preserveAspectRatio="xMidYMid meet" version="1.0"><defs><clipPath id="31776f22fc"><path d="M 2 0 L 34 0 L 34 37.007812 L 2 37.007812 Z M 2 0 " clip-rule="nonzero"/></clipPath><clipPath id="84396bad67"><path d="M 1 1 L 9 1 L 9 37.007812 L 1 37.007812 Z M 1 1 " clip-rule="nonzero"/></clipPath><clipPath id="c50a517a38"><path d="M 0.84375 0.949219 L 31.394531 0.949219 L 31.394531 37.007812 L 0.84375 37.007812 Z M 0.84375 0.949219 " clip-rule="nonzero"/></clipPath><clipPath id="6befece91b"><path d="M 20 4 L 29 4 L 29 37.007812 L 20 37.007812 Z M 20 4 " clip-rule="nonzero"/></clipPath><clipPath id="848fd5b2e5"><path d="M 18.1875 1.5625 L 31.347656 1.5625 L 31.347656 12.984375 L 18.1875 12.984375 Z M 18.1875 1.5625 " clip-rule="nonzero"/></clipPath><clipPath id="7750de9217"><path d="M 24.746094 1.5625 L 31.304688 12.984375 L 18.1875 12.984375 Z M 24.746094 1.5625 " clip-rule="nonzero"/></clipPath><clipPath id="3c2b8f4347"><path d="M 0.1875 0.5625 L 13.347656 0.5625 L 13.347656 11.984375 L 0.1875 11.984375 Z M 0.1875 0.5625 " clip-rule="nonzero"/></clipPath><clipPath id="b3b1d30b5c"><path d="M 6.746094 0.5625 L 13.304688 11.984375 L 0.1875 11.984375 Z M 6.746094 0.5625 " clip-rule="nonzero"/></clipPath><clipPath id="347a615cd5"><rect x="0" width="14" y="0" height="12"/></clipPath><clipPath id="ae4402e046"><rect x="0" width="32" y="0" height="38"/></clipPath></defs><g clip-path="url(#31776f22fc)"><g transform="matrix(1, 0, 0, 1, 2, 0)"><g clip-path="url(#ae4402e046)"><g clip-path="url(#84396bad67)"><path stroke-linecap="butt" transform="matrix(0, 0.089239, -0.089239, 0, 8.83961, 4.677024)" fill="none" stroke-linejoin="miter" d="M -0.0139274 40.005812 L 344.741471 40.005812 " stroke="#000000" stroke-width="80" stroke-opacity="1" stroke-miterlimit="4"/></g><g clip-path="url(#c50a517a38)"><path stroke-linecap="butt" transform="matrix(0.0498886, 0.0739914, -0.0739914, 0.0498886, 8.850598, 4.718863)" fill="none" stroke-linejoin="miter" d="M 0.00208167 40.005688 L 361.050919 40.012407 " stroke="#000000" stroke-width="80" stroke-opacity="1" stroke-miterlimit="4"/></g><g clip-path="url(#6befece91b)"><path stroke-linecap="butt" transform="matrix(0, 0.089239, -0.089239, 0, 28.087019, 8.49189)" fill="none" stroke-linejoin="miter" d="M 0.00333405 40.020557 L 301.992605 40.020557 " stroke="#000000" stroke-width="80" stroke-opacity="1" stroke-miterlimit="4"/></g><g clip-path="url(#848fd5b2e5)"><g clip-path="url(#7750de9217)"><g transform="matrix(1, 0, 0, 1, 18, 1)"><g clip-path="url(#347a615cd5)"><g clip-path="url(#3c2b8f4347)"><g clip-path="url(#b3b1d30b5c)"><path fill="#000000" d="M 0.1875 0.5625 L 13.304688 0.5625 L 13.304688 11.984375 L 0.1875 11.984375 Z M 0.1875 0.5625 " fill-opacity="1" fill-rule="nonzero"/></g></g></g></g></g></g></g></g></g></svg>