<svg xmlns="http://www.w3.org/2000/svg" xmlns:xlink="http://www.w3.org/1999/xlink" width="1914" zoomAndPan="magnify" viewBox="0 0 1435.5 533.249983" height="711" preserveAspectRatio="xMidYMid meet" version="1.0"><defs><g/><clipPath id="bf0d067245"><rect x="0" width="1069" y="0" height="345"/></clipPath><clipPath id="53a108b78d"><path d="M 0.757812 70 L 61 70 L 61 389 L 0.757812 389 Z M 0.757812 70 " clip-rule="nonzero"/></clipPath><clipPath id="06c0d6731b"><path d="M 0.757812 0 L 527 0 L 527 532.5 L 0.757812 532.5 Z M 0.757812 0 " clip-rule="nonzero"/></clipPath><clipPath id="1f3852243f"><path d="M 139.132812 74.042969 L 249.585938 74.042969 L 249.585938 169.894531 L 139.132812 169.894531 Z M 139.132812 74.042969 " clip-rule="nonzero"/></clipPath><clipPath id="ea8aa5d82d"><path d="M 194.175781 74.042969 L 249.222656 169.894531 L 139.132812 169.894531 Z M 194.175781 74.042969 " clip-rule="nonzero"/></clipPath><clipPath id="b0acd5b2db"><path d="M 0.132812 0.0429688 L 110.289062 0.0429688 L 110.289062 95.894531 L 0.132812 95.894531 Z M 0.132812 0.0429688 " clip-rule="nonzero"/></clipPath><clipPath id="ae5c0c41f9"><path d="M 55.175781 0.0429688 L 110.222656 95.894531 L 0.132812 95.894531 Z M 55.175781 0.0429688 " clip-rule="nonzero"/></clipPath><clipPath id="ce140c6cb3"><rect x="0" width="111" y="0" height="96"/></clipPath></defs><path stroke-linecap="butt" transform="matrix(0.374473, -0.648607, 0.648607, 0.374473, 119.147354, 161.807173)" fill="none" stroke-linejoin="miter" d="M -0.00199405 13.999169 L 160.583987 14.001572 " stroke="#ffffff" stroke-width="28" stroke-opacity="1" stroke-miterlimit="4"/><path stroke-linecap="butt" transform="matrix(-0.374473, -0.648607, 0.648607, -0.374473, 250.111143, 172.891932)" fill="none" stroke-linejoin="miter" d="M 0.00115834 14.000313 L 157.112485 13.997318 " stroke="#ffffff" stroke-width="28" stroke-opacity="1" stroke-miterlimit="4"/><g transform="matrix(1, 0, 0, 1, 241, 94)"><g clip-path="url(#bf0d067245)"><g fill="#000000" fill-opacity="1"><g transform="translate(1.056981, 247.777343)"><g><path d="M 68.140625 -226.65625 L 68.140625 0 L 16.484375 0 L 16.484375 -226.65625 Z M 68.140625 -226.65625 "/></g></g></g><g fill="#000000" fill-opacity="1"><g transform="translate(80.182338, 247.777343)"><g><path d="M 100 -230.78125 C 112.269531 -230.78125 124.265625 -228.992188 135.984375 -225.421875 C 147.710938 -221.847656 156.414062 -218.320312 162.09375 -214.84375 L 170.328125 -209.34375 L 149.453125 -168.140625 C 147.804688 -169.234375 145.515625 -170.648438 142.578125 -172.390625 C 139.648438 -174.128906 134.15625 -176.460938 126.09375 -179.390625 C 118.039062 -182.328125 110.535156 -183.796875 103.578125 -183.796875 C 94.960938 -183.796875 88.320312 -181.960938 83.65625 -178.296875 C 78.988281 -174.640625 76.65625 -169.695312 76.65625 -163.46875 C 76.65625 -160.351562 77.753906 -157.46875 79.953125 -154.8125 C 82.148438 -152.15625 85.898438 -149.316406 91.203125 -146.296875 C 96.515625 -143.273438 101.1875 -140.847656 105.21875 -139.015625 C 109.25 -137.179688 115.476562 -134.4375 123.90625 -130.78125 C 138.5625 -124.550781 151.0625 -116.078125 161.40625 -105.359375 C 171.75 -94.640625 176.921875 -82.503906 176.921875 -68.953125 C 176.921875 -55.953125 174.585938 -44.597656 169.921875 -34.890625 C 165.253906 -25.179688 158.84375 -17.578125 150.6875 -12.078125 C 142.539062 -6.585938 133.519531 -2.515625 123.625 0.140625 C 113.738281 2.796875 103.023438 4.125 91.484375 4.125 C 81.597656 4.125 71.890625 3.113281 62.359375 1.09375 C 52.835938 -0.914062 44.867188 -3.429688 38.453125 -6.453125 C 32.046875 -9.472656 26.28125 -12.445312 21.15625 -15.375 C 16.03125 -18.3125 12.273438 -20.785156 9.890625 -22.796875 L 6.3125 -25.828125 L 32.140625 -69.234375 C 34.335938 -67.398438 37.359375 -65.0625 41.203125 -62.21875 C 45.054688 -59.382812 51.878906 -55.585938 61.671875 -50.828125 C 71.472656 -46.066406 80.128906 -43.6875 87.640625 -43.6875 C 109.429688 -43.6875 120.328125 -51.101562 120.328125 -65.9375 C 120.328125 -69.050781 119.546875 -71.9375 117.984375 -74.59375 C 116.429688 -77.25 113.6875 -79.90625 109.75 -82.5625 C 105.8125 -85.21875 102.332031 -87.320312 99.3125 -88.875 C 96.289062 -90.4375 91.34375 -92.816406 84.46875 -96.015625 C 77.601562 -99.222656 72.523438 -101.648438 69.234375 -103.296875 C 55.492188 -110.078125 44.867188 -118.546875 37.359375 -128.703125 C 29.847656 -138.867188 26.09375 -149.816406 26.09375 -161.546875 C 26.09375 -181.878906 33.601562 -198.5 48.625 -211.40625 C 63.644531 -224.320312 80.769531 -230.78125 100 -230.78125 Z M 100 -230.78125 "/></g></g></g><g fill="#000000" fill-opacity="1"><g transform="translate(264.808152, 247.777343)"><g><path d="M 68.140625 -90.9375 L 68.140625 0 L 16.484375 0 L 16.484375 -226.65625 L 68.140625 -226.65625 L 68.140625 -136.265625 L 141.21875 -136.265625 L 141.21875 -226.65625 L 192.859375 -226.65625 L 192.859375 0 L 141.21875 0 L 141.21875 -90.9375 Z M 68.140625 -90.9375 "/></g></g></g><g fill="#000000" fill-opacity="1"><g transform="translate(474.160588, 247.777343)"><g><path d="M 131.59375 -226.65625 L 223.078125 0 L 167.59375 0 L 150.828125 -45.328125 L 64.5625 -45.328125 L 47.796875 0 L -7.6875 0 L 83.796875 -226.65625 Z M 133.25 -90.65625 L 107.96875 -156.59375 L 107.421875 -156.59375 L 82.140625 -90.65625 Z M 133.25 -90.65625 "/></g></g></g><g fill="#000000" fill-opacity="1"><g transform="translate(689.55735, 247.777343)"><g><path d="M 68.140625 -140.65625 L 68.140625 0 L 16.484375 0 L 16.484375 -226.65625 L 68.140625 -226.65625 L 158.25 -85.984375 L 158.796875 -85.984375 L 158.796875 -226.65625 L 210.453125 -226.65625 L 210.453125 0 L 158.796875 0 L 68.6875 -140.65625 Z M 68.140625 -140.65625 "/></g></g></g><g fill="#000000" fill-opacity="1"><g transform="translate(903.305737, 247.777343)"><g><path d="M 2.203125 -181.328125 L 2.203125 -226.65625 L 161.546875 -226.65625 L 161.546875 -181.328125 L 107.703125 -181.328125 L 107.703125 0 L 56.046875 0 L 56.046875 -181.328125 Z M 2.203125 -181.328125 "/></g></g></g></g></g><path stroke-linecap="butt" transform="matrix(0, 0.748947, -0.748947, 0, 285.234951, 102.879522)" fill="none" stroke-linejoin="miter" d="M -0.00082208 1.998367 L 342.819233 1.998367 " stroke="#000000" stroke-width="4" stroke-opacity="1" stroke-miterlimit="4"/><g clip-path="url(#53a108b78d)"><path stroke-linecap="butt" transform="matrix(0, 0.748947, -0.748947, 0, 60.672771, 100.166507)" fill="none" stroke-linejoin="miter" d="M 0.00195212 40.000086 L 344.751801 40.000086 " stroke="#000000" stroke-width="80" stroke-opacity="1" stroke-miterlimit="4"/></g><g clip-path="url(#06c0d6731b)"><path stroke-linecap="butt" transform="matrix(0.418695, 0.62098, -0.62098, 0.418695, 60.764979, 100.517634)" fill="none" stroke-linejoin="miter" d="M 0.00021953 40.000164 L 361.039923 40.0023 " stroke="#000000" stroke-width="80" stroke-opacity="1" stroke-miterlimit="4"/></g><path stroke-linecap="butt" transform="matrix(0, 0.748947, -0.748947, 0, 222.208449, 132.183132)" fill="none" stroke-linejoin="miter" d="M 0.000617118 40.000782 L 302.00814 40.000782 " stroke="#000000" stroke-width="80" stroke-opacity="1" stroke-miterlimit="4"/><g clip-path="url(#1f3852243f)"><g clip-path="url(#ea8aa5d82d)"><g transform="matrix(1, 0, 0, 1, 139, 74)"><g clip-path="url(#ce140c6cb3)"><g clip-path="url(#b0acd5b2db)"><g clip-path="url(#ae5c0c41f9)"><path fill="#000000" d="M 0.132812 0.0429688 L 110.210938 0.0429688 L 110.210938 95.894531 L 0.132812 95.894531 Z M 0.132812 0.0429688 " fill-opacity="1" fill-rule="nonzero"/></g></g></g></g></g></g></svg>